<?xml version="1.0"?>
<svg xmlns="http://www.w3.org/2000/svg" viewBox="0 0 64 64" width="512" height="512"><g id="Outlines"><g><path d="M29.464,35.122a1,1,0,0,0,0,1.414,5.007,5.007,0,0,0,7.072,0,1,1,0,0,0-1.414-1.414,3.006,3.006,0,0,1-4.244,0A1,1,0,0,0,29.464,35.122Z"/><path d="M28.647,30.146a.5.5,0,0,1,.706,0,1,1,0,1,0,1.415-1.414,2.562,2.562,0,0,0-3.536,0,1,1,0,1,0,1.415,1.414Z"/><path d="M36.647,30.146a.5.5,0,0,1,.706,0,1,1,0,1,0,1.415-1.414,2.562,2.562,0,0,0-3.536,0,1,1,0,1,0,1.415,1.414Z"/><circle cx="32" cy="55" r="1"/><circle cx="32" cy="58" r="1"/><path d="M44,42H39V39.981A9.981,9.981,0,0,0,43,32a4,4,0,0,0,0-8V21.037l.628-8.795A4.993,4.993,0,0,0,41,3a4.927,4.927,0,0,0-3.312,1.265,5.984,5.984,0,0,0-9.376,0A4.927,4.927,0,0,0,25,3a4.993,4.993,0,0,0-2.628,9.242l.345,4.829a1,1,0,1,0,2-.142l-.384-5.376a1,1,0,0,0-.578-.836A2.994,2.994,0,0,1,25,5a2.969,2.969,0,0,1,2.572,1.487,1.011,1.011,0,0,0,.919.49,1,1,0,0,0,.857-.593,3.989,3.989,0,0,1,7.3,0,1,1,0,0,0,1.776.1A2.969,2.969,0,0,1,41,5a2.994,2.994,0,0,1,1.25,5.717,1,1,0,0,0-.578.836L41.069,20H37.133l.859-6.876a1,1,0,0,0-1.984-.248L35.117,20H30.883l-.891-7.124a1,1,0,0,0-1.984.248L28.867,20H24a1,1,0,0,0-1,1v3a4,4,0,0,0,0,8,9.981,9.981,0,0,0,4,7.981V42H23a1,1,0,0,0,0,2h4.35A6.011,6.011,0,0,0,32,47.91v1.413l-4.372,1.748A1,1,0,0,0,27,52v9a1,1,0,0,0,2,0V52.677l4.372-1.748A1,1,0,0,0,34,50V47.91A6.011,6.011,0,0,0,38.65,44H44a5.006,5.006,0,0,1,5,5V61a1,1,0,0,0,2,0V49A7.008,7.008,0,0,0,44,42Zm1-14a2,2,0,0,1-2,2V26A2,2,0,0,1,45,28ZM25,22H41v2H25Zm-4,6a2,2,0,0,1,2-2v4A2,2,0,0,1,21,28Zm4,4V26H41v6a8,8,0,0,1-16,0Zm8,14a4,4,0,0,1-4-4v-.841a9.933,9.933,0,0,0,8,0V42A4,4,0,0,1,33,46Z"/><path d="M61,48V41a1,1,0,0,0-2,0v7H57V45a1,1,0,0,0-1-1H54V36a6.01,6.01,0,0,1,5-5.917V37a1,1,0,0,0,2,0V29a1,1,0,0,0-1-1,8.009,8.009,0,0,0-8,8v9a1,1,0,0,0,1,1h2v2a1,1,0,0,0-1,1v9a4,4,0,0,0,8,0V49A1,1,0,0,0,61,48Zm-5,2h4v4H56Zm2,10a2,2,0,0,1-2-2V56h4v2A2,2,0,0,1,58,60Z"/><path d="M13.347,48.14a1,1,0,1,0,1.978.293,6.44,6.44,0,0,1,.347-1.329,5,5,0,0,0-.759-4.884,5.082,5.082,0,0,0-5.869-1.484,5.393,5.393,0,0,0-.543.272,5.008,5.008,0,0,0-1.83,6.831l5,8.66a2.983,2.983,0,0,0,1.822,1.4,3.02,3.02,0,0,0,.786.1,2.956,2.956,0,0,0,1.49-.4,3.127,3.127,0,0,0,.295-.194,3.025,3.025,0,0,0,1.054-3.354,3.09,3.09,0,0,0-.538-.964,5.608,5.608,0,0,1-.849-1.393,1,1,0,0,0-1.84.785,7.6,7.6,0,0,0,1.151,1.886,1.115,1.115,0,0,1,.186.341,1.038,1.038,0,0,1-.351,1.089,1.056,1.056,0,0,1-.108.071.98.98,0,0,1-.758.1A1,1,0,0,1,13.4,55.5l-5-8.66a3,3,0,0,1,1.1-4.1,3.312,3.312,0,0,1,.337-.169,3.066,3.066,0,0,1,3.5.882A3.012,3.012,0,0,1,13.8,46.4,8.4,8.4,0,0,0,13.347,48.14Z"/><path d="M10.5,44.473a1,1,0,1,0,1.366.366A1,1,0,0,0,10.5,44.473Z"/><path d="M5,31.2A6,6,0,0,0,13.2,29h0a10.024,10.024,0,0,0,1.132-5.208,8.1,8.1,0,0,0-.371-2.109l1.159-2.008a3.5,3.5,0,1,0,.358-6.619A3.5,3.5,0,1,0,9.92,16.674L8.761,18.682a8.08,8.08,0,0,0-2.011.732A10.02,10.02,0,0,0,2.805,23,6,6,0,0,0,5,31.2Zm5.786-18.021a1.5,1.5,0,0,1,2.6,1.5,1.585,1.585,0,0,1-.178.245,1,1,0,0,0,.25,1.53l.088.051a1,1,0,0,0,1.447-.55,1.5,1.5,0,0,1,1.035-.974,1.485,1.485,0,0,1,1.138.15,1.5,1.5,0,1,1-1.747,2.42,1,1,0,0,0-1.527.25l-1.1,1.9A3.752,3.752,0,0,0,12,19.071a3.79,3.79,0,0,0-.939-.374l1.1-1.9a1,1,0,0,0-.546-1.447,1.53,1.53,0,0,1-.278-.125A1.5,1.5,0,0,1,10.787,13.174ZM4.537,24a8.037,8.037,0,0,1,3.127-2.806,5.138,5.138,0,0,1,2.27-.646A2.115,2.115,0,0,1,11,20.8c1.673.966,1.7,5.05.464,7.2a4,4,0,1,1-6.928-4Z"/><path d="M19.656,50.529a1.99,1.99,0,0,1-.244-2.006,8.964,8.964,0,0,0-1.349-8.768A9,9,0,0,0,3.207,49.839L5.16,53.222a1,1,0,0,0,1.733-1L4.939,48.839a7,7,0,1,1,12.6-1.025,4.013,4.013,0,0,0,.576,3.994,5.056,5.056,0,0,1,.891,1.592,5,5,0,0,1-9.07,4.1L8.892,55.687a1,1,0,1,0-1.731,1L8.207,58.5a7,7,0,1,0,11.449-7.97Z"/></g></g></svg>
