<svg id="Capa_1" enable-background="new 0 0 512 512" height="512" viewBox="0 0 512 512" width="512" xmlns="http://www.w3.org/2000/svg"><g><path d="m511.151 198.194c-1.069-2.427-3.06-4.33-5.531-5.29l-40.696-15.802 23.398-60.256c.96-2.472.898-5.225-.171-7.652s-3.06-4.33-5.531-5.29l-62.62-24.316v-29.588c0-6.75-1.32-13.3-3.931-19.46-2.52-5.96-6.13-11.3-10.72-15.89s-9.93-8.2-15.89-10.72c-6.159-2.61-12.709-3.93-19.459-3.93h-360c-2.63 0-5.21 1.07-7.07 2.93-1.861 1.86-2.93 4.44-2.93 7.07v492c0 2.63 1.069 5.21 2.93 7.07s4.44 2.93 7.07 2.93h360c6.75 0 13.3-1.32 19.46-3.93 5.96-2.52 11.3-6.12 15.89-10.72 4.59-4.59 8.2-9.93 10.72-15.89 2.61-6.16 3.93-12.71 3.93-19.46v-13.86c0-5.51-4.49-10-10-10s-9.99 4.48-10 9.99v.01 13.86c-.03 16.51-13.49 29.97-30 30h-310v-472h310c16.51.03 29.97 13.49 30 30v308.14c0 5.52 4.49 10 10 10s10-4.48 10-10v-12.771l22.955 8.914c1.19.462 2.414.681 3.618.681 4.005 0 7.787-2.424 9.324-6.383l55.425-142.735c.96-2.473.899-5.225-.171-7.652zm-471.151 293.806h-20v-472h20zm380-390.957 46.059 17.885-19.778 50.934-26.281-10.205zm20.873 230.976-20.873-8.105v-142.802l69.059 26.816z"/><circle cx="410" cy="403.14" r="10"/><path d="m171.5 335h117.75c5.522 0 10-4.477 10-10v-86.435c20.567-4.747 36-23.278 36-45.19 0-25.571-20.804-46.375-46.375-46.375-10.812 0-21.219 3.825-29.438 10.565-8.218-6.74-18.625-10.565-29.437-10.565s-21.219 3.825-29.438 10.565c-8.219-6.74-18.625-10.565-29.438-10.565-25.571 0-46.375 20.804-46.375 46.375 0 22.272 15.782 40.927 36.75 45.371v86.254c.001 5.523 4.479 10 10.001 10zm-26.75-141.625c0-14.543 11.832-26.375 26.375-26.375 8.408 0 16.389 4.074 21.349 10.897 1.882 2.589 4.889 4.121 8.089 4.121s6.207-1.532 8.089-4.121c4.959-6.823 12.94-10.897 21.348-10.897s16.389 4.074 21.349 10.897c1.882 2.589 4.889 4.121 8.089 4.121s6.207-1.532 8.089-4.121c4.96-6.823 12.94-10.897 21.349-10.897 14.543 0 26.375 11.832 26.375 26.375 0 14.392-11.709 26.22-26.102 26.366-.049 0-16.398.009-16.398.009-5.522 0-10 4.477-10 10s4.478 10 10 10h6.5v75.25h-97.751v-75.25h6.5c5.522 0 10-4.477 10-10s-4.478-10-10-10c0 0-16.803-.006-16.977 0-14.497-.055-26.273-11.866-26.273-26.375z"/></g></svg>